<svg xmlns="http://www.w3.org/2000/svg" xmlns:xlink="http://www.w3.org/1999/xlink" width="1238.573" height="267.753" viewBox="0 0 1238.573 267.753">
  <defs>
    <clipPath id="clip-path">
      <rect id="Rectángulo_343162" data-name="Rectángulo 343162" width="1238.573" height="267.754" fill="none"/>
    </clipPath>
    <clipPath id="clip-path-3">
      <rect id="Rectángulo_343156" data-name="Rectángulo 343156" width="47.853" height="47.442" fill="none"/>
    </clipPath>
    <clipPath id="clip-path-4">
      <rect id="Rectángulo_343157" data-name="Rectángulo 343157" width="45.968" height="28.404" fill="none"/>
    </clipPath>
    <clipPath id="clip-path-5">
      <rect id="Rectángulo_343158" data-name="Rectángulo 343158" width="12.663" height="8.515" fill="none"/>
    </clipPath>
    <clipPath id="clip-path-6">
      <rect id="Rectángulo_343159" data-name="Rectángulo 343159" width="40.209" height="24.002" fill="none"/>
    </clipPath>
    <clipPath id="clip-path-7">
      <rect id="Rectángulo_343160" data-name="Rectángulo 343160" width="42.542" height="105.543" fill="none"/>
    </clipPath>
  </defs>
  <g id="Grupo_895077" data-name="Grupo 895077" transform="translate(-181.427 -7189)">
    <g id="Grupo_893457" data-name="Grupo 893457" transform="translate(181.427 7189)">
      <g id="Grupo_893456" data-name="Grupo 893456" clip-path="url(#clip-path)">
        <g id="Grupo_893455" data-name="Grupo 893455">
          <g id="Grupo_893454" data-name="Grupo 893454" clip-path="url(#clip-path)">
            <path id="Trazado_689594" data-name="Trazado 689594" d="M1238.573,141.872c0,.269-277.286.485-619.256.485C277.226,142.358,0,142.141,0,141.872s277.226-.485,619.317-.485c341.97,0,619.256.217,619.256.485" transform="translate(0 122.573)" fill="#263238"/>
            <path id="Trazado_689595" data-name="Trazado 689595" d="M516.8,95.522l7.132,22.347a25.817,25.817,0,0,0,20.045,17.958l47.7,8.952,12.975-.416L591.677,128.3l-35.854-12.225a9.611,9.611,0,0,1-7.234-6.868L534.315,78.158,516.234,89.244Z" transform="translate(447.54 67.758)" fill="#ffbe9d"/>
            <path id="Trazado_689596" data-name="Trazado 689596" d="M497.771,9.527c6.362-4.357,17.831-3.517,24.487.379s10.048,9.105,11.342,18.21c.388,2.729,1.258,6.9,1.072,9.652s.357,5.748,2.345,7.66c1.914,1.839,4.951,2.483,6.258,4.794a4.349,4.349,0,0,1-5.11,6.284c.874,1.82-.187,4.143-1.927,5.168a7.912,7.912,0,0,1-5.886.5,14.908,14.908,0,0,1-10.964-14.687" transform="translate(431.534 5.726)" fill="#263238"/>
            <path id="Trazado_689597" data-name="Trazado 689597" d="M511.783,166.764c-32.759-10.845-10.3-54.175-10.3-54.175l143.169,13.466a20.714,20.714,0,1,1,.14,41.427Z" transform="translate(428.242 97.607)" fill="#263238"/>
            <path id="Trazado_689598" data-name="Trazado 689598" d="M493.6,166.726c-31.919-10.774-9.923-54.143-9.923-54.143l139.57,13.16c13.632.177,20.29,6.753,20.29,20.665-.024,11.437-4.253,21.08-20.241,20.753Z" transform="translate(412.909 97.602)" fill="#263238"/>
            <path id="Trazado_689599" data-name="Trazado 689599" d="M502.915,116.514a1.542,1.542,0,0,1,.4-.017l1.163.03c1.073.043,2.567.1,4.468.183l16.42.814,54.162,2.968c2.644.127,5.261.355,7.83.392,2.586.041,5.13.147,7.626.3s4.949.338,7.346.6a26.375,26.375,0,0,1,6.98,1.432,16.816,16.816,0,0,1,5.8,3.719,15.5,15.5,0,0,1,3.521,5.649,28.419,28.419,0,0,1,1.434,6.107,42.546,42.546,0,0,1,.383,5.771,24.551,24.551,0,0,1-1.843,9.721,15.972,15.972,0,0,1-4.341,5.913,11.727,11.727,0,0,1-3.952,2.233c-.986.312-1,.209-.045-.146a12.251,12.251,0,0,0,3.822-2.315A15.911,15.911,0,0,0,618.243,154a24.318,24.318,0,0,0,1.7-9.547,42.2,42.2,0,0,0-.424-5.689,27.952,27.952,0,0,0-1.437-5.957,14.861,14.861,0,0,0-3.4-5.4,16.2,16.2,0,0,0-5.6-3.549,25.716,25.716,0,0,0-6.822-1.367c-2.384-.25-4.826-.429-7.317-.577s-5.026-.246-7.6-.286c-2.589-.034-5.194-.261-7.841-.386l-54.163-3.192L508.928,117l-4.46-.325-1.159-.1a1.577,1.577,0,0,1-.394-.062" transform="translate(435.993 100.995)" fill="#455a64"/>
            <path id="Trazado_689600" data-name="Trazado 689600" d="M486.032,132.086a3.4,3.4,0,0,0,1.135.564,11.745,11.745,0,0,0,3.39.691,13.241,13.241,0,0,0,14.187-14.549,11.745,11.745,0,0,0-.777-3.372,3.394,3.394,0,0,0-.592-1.12,23.986,23.986,0,0,1,.827,4.525A13.124,13.124,0,0,1,490.578,132.8a24.1,24.1,0,0,1-4.546-.713" transform="translate(421.356 99.089)" fill="#455a64"/>
            <path id="Trazado_689601" data-name="Trazado 689601" d="M534.775,50.359c17.76,1.99,20.639,14.049,28.922,25.932l11.973,22.1-22.017,13.5.762,33.924,9,30.011-82.94-4.69L490.7,135.6,478.672,99.048c-.838-5.935-.235-16.522,1.41-22.336,6.112-21.608,20.82-24.065,33.866-27.455,2.692-.7,15.684-.655,17.936-.1" transform="translate(414.65 42.251)" fill="#8979f3"/>
            <g id="Grupo_893441" data-name="Grupo 893441" transform="translate(904.904 164.302)" opacity="0.3">
              <g id="Grupo_893440" data-name="Grupo 893440">
                <g id="Grupo_893439" data-name="Grupo 893439" clip-path="url(#clip-path-3)">
                  <path id="Trazado_689602" data-name="Trazado 689602" d="M484.7,90.714c1.469,6.183,3.721,15.372,6.118,21.262,1.762,4.333,3.708,8.67,6.695,12.273a31.036,31.036,0,0,0,16.058,9.8,50.833,50.833,0,0,0,18.981.932l-31.54-17.82-8.39-29.154Z" transform="translate(-484.701 -88.006)"/>
                </g>
              </g>
            </g>
            <path id="Trazado_689603" data-name="Trazado 689603" d="M519.955,128.743a14.492,14.492,0,0,1-.222-2.408c-.082-1.686-.19-3.9-.321-6.575-.237-5.552-.513-13.223-.769-21.7s-.446-16.151-.545-21.707c-.032-2.677-.058-4.9-.077-6.583a14.726,14.726,0,0,1,.075-2.418,14.37,14.37,0,0,1,.222,2.4c.082,1.686.19,3.9.321,6.573.237,5.552.514,13.225.769,21.7s.446,16.151.545,21.709c.032,2.677.058,4.893.078,6.581a14.786,14.786,0,0,1-.077,2.416" transform="translate(449.089 58.392)" fill="#263238"/>
            <path id="Trazado_689604" data-name="Trazado 689604" d="M479.254,92.365a3.287,3.287,0,0,1,.177.47c.112.344.265.807.459,1.4.4,1.262.973,3.062,1.7,5.349,1.454,4.66,3.521,11.3,6.032,19.362l-.276-.136,36.87-13.612c.316-.131.631-.26.92-.381l-.153.308a162.779,162.779,0,0,0-8.633-24.246c-3.273-7.186-6.928-13.382-10.964-17.773a24.237,24.237,0,0,0-6.2-5.018,12.828,12.828,0,0,0-5.73-1.693,8.38,8.38,0,0,0-1.171-.035l-1.021.108c-.319.039-.616.05-.881.1l-.708.19c-.4.1-.721.187-.965.248a1.585,1.585,0,0,1-.336.069,1.642,1.642,0,0,1,.319-.118l.956-.3.708-.217c.265-.063.564-.082.883-.131l1.038-.133a8.454,8.454,0,0,1,1.187.009,12.9,12.9,0,0,1,5.857,1.639,24.278,24.278,0,0,1,6.331,5.026c4.113,4.406,7.822,10.619,11.131,17.824a159.879,159.879,0,0,1,8.706,24.315l.058.22-.211.088c-.293.119-.609.25-.924.381-13.813,5.17-26.626,9.762-36.924,13.524l-.211.078-.065-.215c-2.438-8.082-4.445-14.743-5.857-19.416-.68-2.3-1.214-4.113-1.589-5.382-.168-.6-.3-1.066-.4-1.415a2.575,2.575,0,0,1-.114-.489" transform="translate(415.479 48.683)" fill="#263238"/>
            <path id="Trazado_689605" data-name="Trazado 689605" d="M486.53,93.294l7.977,24.888a25.939,25.939,0,0,0,20.045,18.186l47.7,9.064,12.975-.422-4.411-11.076-44.42-17.566a9.657,9.657,0,0,1-7.232-6.956L512.521,83.8Z" transform="translate(421.788 72.646)" fill="#ffbe9d"/>
            <path id="Trazado_689606" data-name="Trazado 689606" d="M509.274,140.151l.407-3.09,36.644-1.441,17.984-45.348,68.505,4.651L609.7,145.263Z" transform="translate(441.506 78.26)" fill="#455a64"/>
            <path id="Trazado_689607" data-name="Trazado 689607" d="M556.269,108.589a3.59,3.59,0,1,1-1.111-4.955,3.59,3.59,0,0,1,1.111,4.955" transform="translate(476.505 89.36)" fill="#fff"/>
            <path id="Trazado_689608" data-name="Trazado 689608" d="M529.541,11.045C506.908.167,495.509,15.522,492,25.665c-.657,1.9-1.105,3.874-1.936,5.7a8.414,8.414,0,0,1-3.952,4.372c-1.348.6-2.877.674-4.262,1.186a7.812,7.812,0,0,0-4.71,5.444,9.478,9.478,0,0,0,1.273,7.182c.665,1.06,1.551,2.089,1.609,3.338a9.046,9.046,0,0,1-.513,2.476,6.8,6.8,0,0,0,11.151,6.641c.9,2.065,2.091,4.193,4.124,5.164s5.033.1,5.457-2.113a5.368,5.368,0,0,0,10.2-1.938" transform="translate(413.441 6.338)" fill="#263238"/>
            <path id="Trazado_689609" data-name="Trazado 689609" d="M496.8,18.2a4.8,4.8,0,0,0-4.29,4.863l2.718,64.766c.1,7.649,11.273,11.971,19.461,11.8,8.27-.174,8.547-4.229,8.664-11.506.2-12.156.2-16.72.2-16.649,0,0,10.451-1.736,12.615-15.369,1.077-6.781.736-17.9.164-26.985-.515-8.179-5.935-18.214-14.084-17.351Z" transform="translate(426.97 10.154)" fill="#ffbe9d"/>
            <path id="Trazado_689610" data-name="Trazado 689610" d="M515.7,26.5a1.748,1.748,0,0,1-1.686,1.764,1.671,1.671,0,0,1-1.8-1.576,1.748,1.748,0,0,1,1.684-1.766,1.674,1.674,0,0,1,1.8,1.578" transform="translate(444.056 21.6)" fill="#263238"/>
            <path id="Trazado_689611" data-name="Trazado 689611" d="M517.9,24.986c-.217.228-1.542-.752-3.422-.747-1.88-.022-3.262.945-3.465.715-.1-.1.12-.513.722-.952a4.791,4.791,0,0,1,2.772-.853,4.59,4.59,0,0,1,2.724.879c.579.442.775.855.668.958" transform="translate(442.991 20.069)" fill="#263238"/>
            <path id="Trazado_689612" data-name="Trazado 689612" d="M505.851,26.5a1.748,1.748,0,0,1-1.686,1.764,1.671,1.671,0,0,1-1.8-1.576,1.749,1.749,0,0,1,1.684-1.766,1.673,1.673,0,0,1,1.8,1.578" transform="translate(435.514 21.6)" fill="#263238"/>
            <path id="Trazado_689613" data-name="Trazado 689613" d="M507.992,25.175c-.217.228-1.544-.752-3.424-.747-1.878-.022-3.26.945-3.463.715-.1-.1.118-.513.721-.95a4.8,4.8,0,0,1,2.774-.857,4.612,4.612,0,0,1,2.724.881c.577.442.775.855.668.958" transform="translate(434.403 20.231)" fill="#263238"/>
            <path id="Trazado_689614" data-name="Trazado 689614" d="M508.849,39.075a12.529,12.529,0,0,1,3.056-.551c.48-.05.935-.146,1.016-.474a2.44,2.44,0,0,0-.321-1.424q-.678-1.742-1.421-3.657c-1.973-5.209-3.4-9.491-3.191-9.57s1.981,4.081,3.954,9.29q.711,1.927,1.361,3.682a2.777,2.777,0,0,1,.248,1.886,1.2,1.2,0,0,1-.79.7,3.328,3.328,0,0,1-.816.114,12.253,12.253,0,0,1-3.1,0" transform="translate(440.374 20.284)" fill="#263238"/>
            <path id="Trazado_689615" data-name="Trazado 689615" d="M517.616,45.983a34.682,34.682,0,0,1-18.261-4.871s4.43,9.366,18.076,8.089Z" transform="translate(432.908 35.641)" fill="#eb996e"/>
            <path id="Trazado_689616" data-name="Trazado 689616" d="M510.62,34.818a3.388,3.388,0,0,0-3.039-1.258,3.091,3.091,0,0,0-2.138,1.146,1.961,1.961,0,0,0-.149,2.242,2.276,2.276,0,0,0,2.466.624,7.121,7.121,0,0,0,2.406-1.436,2.078,2.078,0,0,0,.536-.556.628.628,0,0,0,0-.7" transform="translate(437.807 29.076)" fill="#8979f3"/>
            <path id="Trazado_689617" data-name="Trazado 689617" d="M505.616,32.492c.306-.019.31,2.024,2.057,3.474s3.922,1.225,3.939,1.51c.028.127-.485.4-1.4.422a5.093,5.093,0,0,1-3.288-1.146,4.425,4.425,0,0,1-1.594-2.912c-.078-.853.149-1.359.289-1.348" transform="translate(438.07 28.168)" fill="#263238"/>
            <path id="Trazado_689618" data-name="Trazado 689618" d="M509.223,23.212c-.185.512-2.065.269-4.272.536-2.212.22-3.993.866-4.286.409-.131-.22.181-.7.9-1.2a7.475,7.475,0,0,1,6.519-.719c.81.327,1.219.728,1.139.971" transform="translate(434.018 18.9)" fill="#263238"/>
            <path id="Trazado_689619" data-name="Trazado 689619" d="M517.294,22.121c-.33.428-1.628-.017-3.185-.037-1.559-.075-2.879.288-3.183-.159-.133-.218.075-.646.652-1.051a4.613,4.613,0,0,1,5.13.159c.551.441.732.879.586,1.088" transform="translate(442.905 17.488)" fill="#263238"/>
            <path id="Trazado_689620" data-name="Trazado 689620" d="M496.424,27.066a3.417,3.417,0,0,0-3.564.177,6.321,6.321,0,0,0,3.982,11.739" transform="translate(424.564 23.093)" fill="#ffbe9d"/>
            <path id="Trazado_689621" data-name="Trazado 689621" d="M516.325,9.31c4.968.164,8.737,1.677,13.1,4.062a18.957,18.957,0,0,1,9.351,11.112,3.874,3.874,0,0,1-.11,3.069,3,3,0,0,1-3.739.807,8.762,8.762,0,0,1-3.041-2.8,5.828,5.828,0,0,1-11.319-.127c-.021,2.617-2.64,4.783-5.255,4.688a6.735,6.735,0,0,1-5.8-4.58,17.082,17.082,0,0,1-2.4,6.656c-1.393,1.927-3.913,3.25-6.172,2.515.321,2.031.631,4.171-.09,6.1s-2.86,3.486-4.805,2.817c-1.889-.648-2.623-2.884-3.064-4.833a45.471,45.471,0,0,1-1.462-11.426,18.522,18.522,0,0,1,3.51-10.806,18.46,18.46,0,0,1,9.994-6.163,44.265,44.265,0,0,1,11.864-1.079" transform="translate(426.099 8.067)" fill="#263238"/>
            <path id="Trazado_689622" data-name="Trazado 689622" d="M494.232,33.5c-.039-.1-.53.116-1.187-.187a2.371,2.371,0,0,1-1.171-2.328,2.409,2.409,0,0,1,1.454-2.186c.683-.28,1.185-.144,1.214-.248.049-.067-.463-.429-1.363-.228a2.507,2.507,0,0,0-1.333.831,3.054,3.054,0,0,0-.678,1.794,2.712,2.712,0,0,0,1.706,2.836c.928.245,1.43-.228,1.357-.284" transform="translate(425.803 24.504)" fill="#eb996e"/>
            <path id="Trazado_689623" data-name="Trazado 689623" d="M532.077,12.177c-.1.215-2.94-1.925-8.336-3.008A27.012,27.012,0,0,0,514.212,9a24.353,24.353,0,0,0-18.27,13.138,26.984,26.984,0,0,0-2.875,9.086c-.691,5.461.431,8.832.2,8.859a9.091,9.091,0,0,1-.638-2.332,23.323,23.323,0,0,1-.241-6.605,26.516,26.516,0,0,1,2.761-9.419A24.675,24.675,0,0,1,514.078,8.116a26.5,26.5,0,0,1,9.807.381,23.38,23.38,0,0,1,6.183,2.33,8.972,8.972,0,0,1,2.009,1.35" transform="translate(426.757 6.79)" fill="#8979f3"/>
            <path id="Trazado_689624" data-name="Trazado 689624" d="M520.028,77.718c.034.136-2.117.775-5.6,1.783s-8.272,2.416-13.526,4.111-9.966,3.364-13.377,4.578-5.53,1.955-5.582,1.824a32.081,32.081,0,0,1,5.336-2.466c3.357-1.382,8.05-3.157,13.324-4.861s10.119-3.006,13.649-3.848a31.97,31.97,0,0,1,5.771-1.12" transform="translate(417.816 67.357)" fill="#fafafa"/>
            <path id="Trazado_689625" data-name="Trazado 689625" d="M517.781,72.815c.1.252-8.175,3.6-18.47,7.483s-18.722,6.824-18.817,6.573,8.175-3.6,18.473-7.483,18.718-6.824,18.813-6.573" transform="translate(416.555 63.113)" fill="#fafafa"/>
            <path id="Trazado_689626" data-name="Trazado 689626" d="M544.358,64.725c.088.254-9.59,3.8-21.612,7.912s-21.843,7.249-21.929,7,9.587-3.8,21.613-7.914,21.839-7.247,21.927-6.994" transform="translate(434.174 56.099)" fill="#fafafa"/>
            <path id="Trazado_689627" data-name="Trazado 689627" d="M530.5,72.63c.086.254-6.008,2.535-13.606,5.095s-13.834,4.43-13.92,4.174,6.006-2.535,13.608-5.095S530.41,72.376,530.5,72.63" transform="translate(436.039 62.945)" fill="#fafafa"/>
            <path id="Trazado_689628" data-name="Trazado 689628" d="M532.825,68.879c.11.245-2.965,1.865-6.868,3.618s-7.158,2.978-7.268,2.731,2.967-1.863,6.87-3.618,7.156-2.976,7.266-2.731" transform="translate(449.665 59.687)" fill="#fafafa"/>
            <path id="Trazado_689629" data-name="Trazado 689629" d="M507.391,121.205l-93.677-5.485c-.594-1.337-.989-2.117-.989-2.117l-25.385.573-8.261-.484s-.125.252-.325.678L293.545,116.3c-16.989.047-34.822,10.459-34.787,23.7-.181,12.606,5.961,26.271,21.182,25.921l116.1-.7,116.1.078c15.223.269,19.224-8.922,19.218-19.812,1.723-20.286-10.991-24.147-23.97-24.281" transform="translate(224.323 98.486)" fill="#455a64"/>
            <path id="Trazado_689630" data-name="Trazado 689630" d="M275.811,158.1s.189-.022.558-.034l1.641-.035,6.325-.077,23.361-.164,77.957-.312-.327.347c-.164-2.545-.344-5.267-.521-8.013-.366-5.616-.724-11.138-1.066-16.394l.289.3-71.836-7.8-21.287-2.377c-2.474-.289-4.4-.515-5.735-.67-.631-.082-1.124-.144-1.484-.19a3.189,3.189,0,0,1-.5-.084,3.056,3.056,0,0,1,.508.024c.362.032.857.073,1.492.129l5.746.558L312.24,125.5c18.113,1.91,43.326,4.57,71.858,7.582l.273.03.017.273c.344,5.254.7,10.778,1.072,16.394.177,2.744.355,5.466.521,8.013l.022.347h-.349c-30.7.043-58.149.08-77.957.106l-23.361-.039-6.323-.041-1.643-.028c-.37-.009-.558-.03-.558-.03" transform="translate(239.109 106.284)" fill="#263238"/>
            <path id="Trazado_689631" data-name="Trazado 689631" d="M300.166,127.282c-.071.088-1.24-.848-3.288-2.089a34.864,34.864,0,0,0-17.756-5.056c-2.4-.022-3.881.157-3.9.045a3.286,3.286,0,0,1,1.029-.241,21.312,21.312,0,0,1,2.862-.267,30.855,30.855,0,0,1,18.01,5.128,21.519,21.519,0,0,1,2.293,1.732c.51.448.775.711.747.747" transform="translate(238.602 103.732)" fill="#263238"/>
            <path id="Trazado_689632" data-name="Trazado 689632" d="M426.411,120.807c.041.175-18.419,4.693-41.229,10.087s-41.343,9.628-41.386,9.45,18.417-4.692,41.235-10.087,41.339-9.626,41.381-9.45" transform="translate(298.048 104.727)" fill="#263238"/>
            <path id="Trazado_689633" data-name="Trazado 689633" d="M385.763,119.872c.062.2-3.566.947-7.229,3.486-3.695,2.494-5.7,5.608-5.868,5.476a6.421,6.421,0,0,1,1.255-2.05A19.23,19.23,0,0,1,383.4,120.3a6.38,6.38,0,0,1,2.365-.426" transform="translate(323.07 103.898)" fill="#263238"/>
            <path id="Trazado_689634" data-name="Trazado 689634" d="M334.039,129.794l17.495,2.4.05,19.007-16.084-.371Z" transform="translate(289.589 112.522)" fill="#b78876"/>
            <path id="Trazado_689635" data-name="Trazado 689635" d="M343.41,131.086l7.862-.021a8.7,8.7,0,0,1,4.363,1.156l4.152,2.384a64.639,64.639,0,0,0,7.255,3.435c4.785,1.523,12.833,3.57,14.53,4.871,4.846,3.717,3.388,8.13.732,8.6-2.332.411-38.843-1.415-38.843-1.415Z" transform="translate(297.713 113.624)" fill="#8979f3"/>
            <path id="Trazado_689636" data-name="Trazado 689636" d="M350.759,145.006c-.168.039-.775-2.153-.861-4.938s.368-5.013.536-4.985c.189.024.024,2.24.12,4.962s.392,4.923.205,4.96" transform="translate(303.326 117.108)" fill="#263238"/>
            <path id="Trazado_689637" data-name="Trazado 689637" d="M352.493,144.549c-.181,0-.317-2.033-.3-4.538s.172-4.535.353-4.533.315,2.031.3,4.537-.17,4.537-.351,4.535" transform="translate(305.323 117.45)" fill="#263238"/>
            <path id="Trazado_689638" data-name="Trazado 689638" d="M355.12,145.077c-.181.015-.495-2.067-.7-4.651s-.231-4.688-.05-4.7.495,2.067.7,4.651.232,4.688.05,4.7" transform="translate(307.105 117.663)" fill="#263238"/>
            <path id="Trazado_689639" data-name="Trazado 689639" d="M352.164,141.358a5.448,5.448,0,0,1-1.613-.5,15.178,15.178,0,0,1-3.936-2.418c-.373-.317-.75-.667-1.126-1.051a4.472,4.472,0,0,1-1.006-1.415,1.981,1.981,0,0,1,.215-1.953,1.478,1.478,0,0,1,.975-.54,2.536,2.536,0,0,1,1.06.116,7.83,7.83,0,0,1,1.684,13.924,4.965,4.965,0,0,1-1.8.814,2.071,2.071,0,0,1-1.027-.047,1.371,1.371,0,0,1-.8-.7,1.984,1.984,0,0,1,.226-1.811,5.558,5.558,0,0,1,1.008-1.217,12.088,12.088,0,0,1,3.859-2.543,5.079,5.079,0,0,1,1.626-.465c.015.052-.558.23-1.523.7a13,13,0,0,0-3.633,2.636,5.228,5.228,0,0,0-.894,1.135,1.5,1.5,0,0,0-.181,1.326,1.039,1.039,0,0,0,1.228.418,4.474,4.474,0,0,0,1.566-.747,7.269,7.269,0,0,0-1.523-12.848,1.241,1.241,0,0,0-1.408.209,1.431,1.431,0,0,0-.155,1.395,7.66,7.66,0,0,0,1.929,2.313,21.2,21.2,0,0,0,5.244,3.269" transform="translate(298.504 115.703)" fill="#263238"/>
            <path id="Trazado_689640" data-name="Trazado 689640" d="M378.054,151.41a4.583,4.583,0,0,0,.954-1.2,4.5,4.5,0,0,0-.525-3.963,8.837,8.837,0,0,0-4.867-3.65c-2.225-.793-4.878-1.172-7.557-2a52.647,52.647,0,0,1-13.005-5.885c-1.546-.98-2.739-1.858-3.547-2.483a7.051,7.051,0,0,1-1.193-1.049,7.7,7.7,0,0,1,1.342.842c.849.56,2.076,1.374,3.639,2.294a58.7,58.7,0,0,0,12.951,5.651c2.636.818,5.265,1.206,7.578,2.061a9.136,9.136,0,0,1,5.065,3.993,4.659,4.659,0,0,1,.347,4.3,2.686,2.686,0,0,1-.807.9c-.233.147-.366.2-.375.185" transform="translate(301.963 113.724)" fill="#263238"/>
            <path id="Trazado_689641" data-name="Trazado 689641" d="M337.561,7.494C332.151,9.6,326,17.855,324.9,23.559c-.965,5.039.347,10.192,1.014,15.281s.521,10.748-2.771,14.685c-2.042,2.444-5.028,3.879-7.438,5.963a17.488,17.488,0,0,0-1.686,24.78c-4.031.846-6.792,5.1-6.674,9.215s2.657,7.9,5.993,10.309a28.163,28.163,0,0,0,11.441,4.387c4.27.8,8.788,1.129,12.871-.358,4.8-1.747,8.354-5.728,12.191-9.1,4.7-4.12,10.156-7.591,13.526-12.848,3.924-6.12,4.44-13.772,4.406-21.042a182.811,182.811,0,0,0-5.634-44.168" transform="translate(266.447 6.497)" fill="#263238"/>
            <path id="Trazado_689642" data-name="Trazado 689642" d="M377.821,62.495l29.806,51.563a21.943,21.943,0,0,1-19.558,32.918l-45.557-1.163-1.245-16.563,40.1-7.791L354.192,74.714Z" transform="translate(295.855 54.179)" fill="#b78876"/>
            <path id="Trazado_689643" data-name="Trazado 689643" d="M312.852,151.04l41.918,10.983.878-12.564-38.662-22.317,28.053-52.409-23.7-12.092-29.529,51.723a24.186,24.186,0,0,0,14.058,34.477Z" transform="translate(250.493 54.305)" fill="#b78876"/>
            <path id="Trazado_689644" data-name="Trazado 689644" d="M402.565,107.94l28.59-15.156a144.978,144.978,0,0,0-12.32-20.422c-8.9-12.24-22.678-20.777-38.3-24l0,0L347.6,48.84a43.593,43.593,0,0,0-11.737,2.735l.024-.127C318.025,55.436,298.3,94.471,298.3,94.471l26.09,13.645.586,4.1A27.83,27.83,0,0,0,331.8,126.8l-7.455,49.922,84.565,1.522-10.862-35.707Z" transform="translate(258.603 41.927)" fill="#8979f3"/>
            <path id="Trazado_689645" data-name="Trazado 689645" d="M320.271,107.552a6.081,6.081,0,0,1-1.262-.95,18.286,18.286,0,0,1-2.884-3.207A20.928,20.928,0,0,1,312.56,89.8a44.142,44.142,0,0,1,1.914-7.591c.752-2.276,1.514-4.294,2.181-5.978s1.242-3.03,1.658-3.954a6.891,6.891,0,0,1,.717-1.4,7.805,7.805,0,0,1-.48,1.5c-.392,1.075-.881,2.421-1.462,4.021-.609,1.7-1.324,3.726-2.041,6a47.617,47.617,0,0,0-1.837,7.485,21.57,21.57,0,0,0,.732,7.57,20.143,20.143,0,0,0,2.565,5.687,35.143,35.143,0,0,0,3.764,4.417" transform="translate(270.905 61.443)" fill="#263238"/>
            <path id="Trazado_689646" data-name="Trazado 689646" d="M321.769,72.32c-.217.161-2.207-2.171-4.445-5.205s-3.88-5.621-3.663-5.782,2.2,2.171,4.445,5.2,3.88,5.623,3.663,5.782" transform="translate(271.906 53.165)" fill="#fafafa"/>
            <path id="Trazado_689647" data-name="Trazado 689647" d="M330.173,54.856c.131.235-2.093,1.723-4.966,3.323s-5.311,2.709-5.44,2.476,2.093-1.723,4.966-3.325,5.31-2.709,5.44-2.474" transform="translate(277.211 47.529)" fill="#fafafa"/>
            <path id="Trazado_689648" data-name="Trazado 689648" d="M307.749,77.564c-.267-.021-.291-2.5-.054-5.534s.646-5.481.915-5.459.291,2.5.054,5.534-.648,5.479-.915,5.459" transform="translate(266.609 57.712)" fill="#fafafa"/>
            <path id="Trazado_689649" data-name="Trazado 689649" d="M328.574,78.257c.131.235-1.994,1.669-4.744,3.2s-5.089,2.588-5.22,2.352,1.994-1.667,4.746-3.2,5.087-2.589,5.218-2.354" transform="translate(276.209 67.815)" fill="#fafafa"/>
            <path id="Trazado_689650" data-name="Trazado 689650" d="M332.679,66.049c.2.177-1.275,2.175-3.3,4.46s-3.823,4-4.025,3.816,1.275-2.175,3.3-4.46,3.823-3.993,4.025-3.816" transform="translate(282.046 57.249)" fill="#fafafa"/>
            <path id="Trazado_689651" data-name="Trazado 689651" d="M342.715,73.7c-.218.155-1.768-1.654-3.458-4.042s-2.884-4.447-2.666-4.6,1.768,1.654,3.459,4.042,2.883,4.447,2.664,4.6" transform="translate(291.779 56.391)" fill="#fafafa"/>
            <path id="Trazado_689652" data-name="Trazado 689652" d="M334.968,87.175c-.267.026-.767-2.866-1.118-6.456s-.416-6.525-.149-6.551.767,2.864,1.118,6.456.416,6.525.149,6.551" transform="translate(289.153 64.299)" fill="#fafafa"/>
            <path id="Trazado_689653" data-name="Trazado 689653" d="M332.687,95.742c-.233.133-1.716-2.027-3.312-4.824s-2.7-5.171-2.466-5.3,1.716,2.026,3.31,4.822,2.7,5.173,2.468,5.306" transform="translate(283.38 74.216)" fill="#fafafa"/>
            <path id="Trazado_689654" data-name="Trazado 689654" d="M347.487,85.332c.213.164-1.256,2.418-3.282,5.031s-3.84,4.6-4.051,4.436,1.256-2.416,3.282-5.031,3.838-4.6,4.051-4.436" transform="translate(294.872 73.969)" fill="#fafafa"/>
            <path id="Trazado_689655" data-name="Trazado 689655" d="M355.091,83.473c-.1.232-3.009-.956-6.028-3.327s-4.888-4.886-4.69-5.044c.215-.187,2.343,1.992,5.287,4.279s5.56,3.84,5.431,4.092" transform="translate(298.535 65.098)" fill="#fafafa"/>
            <path id="Trazado_689656" data-name="Trazado 689656" d="M365.9,71.58c.006.269-2.9.558-6.493.646s-6.51-.058-6.517-.327,2.9-.556,6.493-.646,6.51.058,6.517.327" transform="translate(305.935 61.749)" fill="#fafafa"/>
            <g id="Grupo_893444" data-name="Grupo 893444" transform="translate(633.075 107.332)" opacity="0.3">
              <g id="Grupo_893443" data-name="Grupo 893443">
                <g id="Grupo_893442" data-name="Grupo 893442" clip-path="url(#clip-path-4)">
                  <path id="Trazado_689657" data-name="Trazado 689657" d="M382.442,60.054a16.787,16.787,0,0,1-25.926,21.009,11.6,11.6,0,0,0-2.937-2.505,12.9,12.9,0,0,0-3.585-.749,12.965,12.965,0,0,1-8.528-20.318Z" transform="translate(-339.099 -57.491)"/>
                </g>
              </g>
            </g>
            <path id="Trazado_689658" data-name="Trazado 689658" d="M312.242,149.545,307.319,93.9l103-.276-6.676,56.372Z" transform="translate(266.424 81.163)" fill="#263238"/>
            <path id="Trazado_689659" data-name="Trazado 689659" d="M344.551,112.624a6.559,6.559,0,1,1-6.577-6.542,6.559,6.559,0,0,1,6.577,6.542" transform="translate(287.331 91.966)" fill="#fafafa"/>
            <path id="Trazado_689660" data-name="Trazado 689660" d="M350.046,101.625a16.088,16.088,0,0,0,15.74-15.9l.743-63.965a5.092,5.092,0,0,0-4.555-5.164L334.957,9.772C326.306,8.857,320.552,19.51,320,28.193c-.609,9.648-.971,21.449.174,28.648,2.3,14.474,13.391,16.317,13.391,16.317,0-.039.009,5.6.041,12.46A16.089,16.089,0,0,0,350.046,101.625Z" transform="translate(276.926 8.424)" fill="#b78876"/>
            <path id="Trazado_689661" data-name="Trazado 689661" d="M322.745,25.411a1.857,1.857,0,0,0,1.79,1.873,1.775,1.775,0,0,0,1.914-1.673,1.858,1.858,0,0,0-1.789-1.874,1.777,1.777,0,0,0-1.915,1.675" transform="translate(279.797 20.575)" fill="#263238"/>
            <path id="Trazado_689662" data-name="Trazado 689662" d="M321.124,23.808c.23.243,1.637-.8,3.635-.793,1.994-.022,3.461,1,3.678.76.106-.108-.129-.545-.767-1.01a5.083,5.083,0,0,0-2.944-.907,4.884,4.884,0,0,0-2.892.933c-.614.47-.823.909-.709,1.017" transform="translate(278.367 18.949)" fill="#263238"/>
            <path id="Trazado_689663" data-name="Trazado 689663" d="M332.925,25.411a1.855,1.855,0,0,0,1.79,1.873,1.775,1.775,0,0,0,1.914-1.673,1.858,1.858,0,0,0-1.788-1.874,1.777,1.777,0,0,0-1.915,1.675" transform="translate(288.622 20.575)" fill="#263238"/>
            <path id="Trazado_689664" data-name="Trazado 689664" d="M331.64,24.008c.232.243,1.639-.8,3.635-.793,1.994-.022,3.461,1,3.678.76.106-.108-.125-.545-.767-1.01a5.083,5.083,0,0,0-2.944-.907,4.9,4.9,0,0,0-2.892.933c-.612.472-.821.909-.709,1.017" transform="translate(287.485 19.122)" fill="#263238"/>
            <path id="Trazado_689665" data-name="Trazado 689665" d="M330.107,38.765a13.192,13.192,0,0,0-3.245-.586c-.51-.052-.993-.153-1.079-.5a2.591,2.591,0,0,1,.342-1.51q.72-1.851,1.509-3.885c2.095-5.53,3.611-10.076,3.387-10.16s-2.1,4.333-4.2,9.863c-.5,1.365-.986,2.664-1.445,3.907a2.962,2.962,0,0,0-.265,2,1.279,1.279,0,0,0,.838.747,3.5,3.5,0,0,0,.866.119,12.952,12.952,0,0,0,3.29.006" transform="translate(281.768 19.177)" fill="#263238"/>
            <path id="Trazado_689666" data-name="Trazado 689666" d="M327,46.1a36.825,36.825,0,0,0,19.384-5.171s-4.7,9.943-19.19,8.59Z" transform="translate(283.491 35.482)" fill="#aa6550"/>
            <path id="Trazado_689667" data-name="Trazado 689667" d="M328.29,34.245a3.6,3.6,0,0,1,3.226-1.337,3.286,3.286,0,0,1,2.27,1.217,2.083,2.083,0,0,1,.159,2.38,2.417,2.417,0,0,1-2.619.663,7.563,7.563,0,0,1-2.554-1.523,2.226,2.226,0,0,1-.569-.592.668.668,0,0,1,0-.743" transform="translate(284.432 28.511)" fill="#aa6550"/>
            <path id="Trazado_689668" data-name="Trazado 689668" d="M333.85,31.776c-.325-.019-.329,2.149-2.184,3.689s-4.165,1.3-4.182,1.6c-.03.136.515.42,1.492.446a5.4,5.4,0,0,0,3.489-1.215,4.708,4.708,0,0,0,1.693-3.092c.082-.907-.159-1.445-.308-1.432" transform="translate(283.905 27.548)" fill="#263238"/>
            <path id="Trazado_689669" data-name="Trazado 689669" d="M331.151,21.923c.2.543,2.192.286,4.535.568,2.349.237,4.24.922,4.55.435.138-.233-.19-.743-.954-1.27a7.936,7.936,0,0,0-6.923-.764c-.859.345-1.292.773-1.208,1.031" transform="translate(287.076 17.708)" fill="#263238"/>
            <path id="Trazado_689670" data-name="Trazado 689670" d="M321.283,21.889c.351.454,1.727-.017,3.383-.039,1.654-.08,3.054.3,3.377-.17.142-.23-.078-.685-.691-1.115a4.9,4.9,0,0,0-5.448.168c-.584.467-.777.933-.622,1.156" transform="translate(278.486 17.182)" fill="#263238"/>
            <path id="Trazado_689671" data-name="Trazado 689671" d="M402.2,98.059c-2.679-4.585-8.674-7.653-8.638-12.962.024-3.256,2.477-6.092,2.623-9.344.291-6.491-8.05-9.915-10.292-16.016-2.039-5.549,1.471-11.786.235-17.566-1.51-7.051-7.906-9.854-13.177-14.614a24.9,24.9,0,0,1-5.377-7.343c-.17-.336-.351-.668-.545-.993A22.836,22.836,0,0,0,350.247,8.35a35.783,35.783,0,0,0-19.541-.943,17.687,17.687,0,0,0-9.126,5.138,10.726,10.726,0,0,0-2.52,9.87c1.012,3.4,4.5,6.06,8.013,5.59,2.668-.358,5.226-2.334,7.8-1.548,2.433.741,3.773,3.71,6.273,4.173,2.47.456,4.667-1.761,7.169-1.979,2.759-.239,5.155,2.027,6.383,4.51a23.02,23.02,0,0,1,1.193,3.079c2.057,10.214,5.984,14.915,3.243,20.91-1.454,3.181-3.935,6.012-4.318,9.49-.881,8,9.506,13.813,8.92,21.838-.248,3.4-2.466,6.292-3.659,9.484a16.706,16.706,0,0,0,5.7,18.834c2.924,2.11,6.829,3.2,10.2,1.919a8.641,8.641,0,0,0,1.12-.525,14.692,14.692,0,0,0,6.743,3.614c6.148,1.316,12.578-2.158,16.323-7.206,3.506-4.727,5.011-11.457,2.041-16.537" transform="translate(276.289 5.613)" fill="#263238"/>
            <path id="Trazado_689672" data-name="Trazado 689672" d="M363.42,117.291a19.8,19.8,0,0,0,5.076-1.7,16.232,16.232,0,0,0,4.867-3.872,14.83,14.83,0,0,0,3.467-7.352,15.48,15.48,0,0,0-1.727-9.618,15.7,15.7,0,0,0-8.452-7.3c-1.852-.844-3.941-1.7-5.468-3.461a8.011,8.011,0,0,1-1.619-6.581,20.2,20.2,0,0,1,2.425-6.531,37.1,37.1,0,0,0,2.985-6.26,9.129,9.129,0,0,0-.177-6.551,18.484,18.484,0,0,0-3.87-5.377c-1.531-1.613-3.146-3.135-4.535-4.839a22.346,22.346,0,0,1-3.3-5.522,53.6,53.6,0,0,1-3.039-11.37,78.626,78.626,0,0,0-2.224-9.891c-1.775-5.956-5.33-9.861-8.278-11.6a15.531,15.531,0,0,0-4.987-1.887c0-.017.121-.015.358,0a6.981,6.981,0,0,1,1.04.136,11.926,11.926,0,0,1,3.781,1.423,16.975,16.975,0,0,1,4.82,4.206,23.97,23.97,0,0,1,3.917,7.509,76.635,76.635,0,0,1,2.365,9.956,53.626,53.626,0,0,0,3.069,11.164,21.582,21.582,0,0,0,3.192,5.289c1.346,1.635,2.948,3.138,4.509,4.77A19.331,19.331,0,0,1,365.69,57.7a10.106,10.106,0,0,1,.213,7.216c-1.536,4.671-4.809,8.271-5.4,12.641a7.08,7.08,0,0,0,1.383,5.836c1.316,1.551,3.275,2.4,5.13,3.247a18.435,18.435,0,0,1,5.239,3.166,16.414,16.414,0,0,1,5.25,14.682,15.283,15.283,0,0,1-3.736,7.6,16.2,16.2,0,0,1-5.106,3.851,14.615,14.615,0,0,1-3.844,1.24c-.456.08-.81.093-1.044.116a.962.962,0,0,1-.358,0" transform="translate(290.046 6.562)" fill="#455a64"/>
            <path id="Trazado_689673" data-name="Trazado 689673" d="M70.646,134.795l2.715-4.146,23.288,14.736-5.491,9.2-1.529-.762c-6.771-3.45-34.182-18.016-37.794-21.894-4.027-4.328,18.811,2.868,18.811,2.868" transform="translate(44.525 113.171)" fill="#8979f3"/>
            <g id="Grupo_893447" data-name="Grupo 893447" transform="translate(127.173 258.885)" opacity="0.5">
              <g id="Grupo_893446" data-name="Grupo 893446">
                <g id="Grupo_893445" data-name="Grupo 893445" clip-path="url(#clip-path-5)">
                  <path id="Trazado_689674" data-name="Trazado 689674" d="M68.119,142.34a9.721,9.721,0,0,1,5.913-3.545,8.029,8.029,0,0,1,6.751,1.785l-3.98,6.6Z" transform="translate(-68.118 -138.669)" fill="#fff"/>
                </g>
              </g>
            </g>
            <g id="Grupo_893450" data-name="Grupo 893450" transform="translate(95.744 243.751)" opacity="0.5">
              <g id="Grupo_893449" data-name="Grupo 893449">
                <g id="Grupo_893448" data-name="Grupo 893448" clip-path="url(#clip-path-6)">
                  <path id="Trazado_689675" data-name="Trazado 689675" d="M59.347,131.613s-8.265-2.074-8.06-.394S78.64,148.66,91.223,154.565l.269-.555L59.67,135.9s1.027-3.42-.323-4.283" transform="translate(-51.284 -130.563)" fill="#fff"/>
                </g>
              </g>
            </g>
            <path id="Trazado_689676" data-name="Trazado 689676" d="M91.77,154.1a2.407,2.407,0,0,1-.435-.192c-.364-.185-.764-.385-1.214-.611q-1.806-.949-4.43-2.324c-3.726-1.988-8.838-4.8-14.415-8.033s-10.561-6.271-14.138-8.515l-4.216-2.688c-.422-.28-.793-.526-1.135-.75a2.573,2.573,0,0,1-.383-.282,2.785,2.785,0,0,1,.418.224c.351.211.736.439,1.169.7l4.272,2.6c3.607,2.192,8.607,5.2,14.181,8.427s10.662,6.075,14.359,8.114l4.378,2.416,1.186.666a2.614,2.614,0,0,1,.4.252" transform="translate(44.565 113.307)" fill="#263238"/>
            <path id="Trazado_689677" data-name="Trazado 689677" d="M55.726,135.961a11.2,11.2,0,0,0,.39-2.532,11.4,11.4,0,0,0-.512-2.509,4.44,4.44,0,0,1,.121,5.041" transform="translate(48.197 113.497)" fill="#263238"/>
            <path id="Trazado_689678" data-name="Trazado 689678" d="M60.636,135.152a5.578,5.578,0,0,1-.106-2.709,5.578,5.578,0,0,1,.106,2.709" transform="translate(52.369 114.819)" fill="#263238"/>
            <path id="Trazado_689679" data-name="Trazado 689679" d="M62.223,134.967c-.088.028-.317-.441-.513-1.045s-.284-1.12-.2-1.148.317.439.513,1.045.284,1.12.2,1.148" transform="translate(53.299 115.105)" fill="#263238"/>
            <path id="Trazado_689680" data-name="Trazado 689680" d="M64.39,133.788a3.246,3.246,0,0,1-1.333-.562c-.691-.39-1.214-.773-1.167-.853a3.244,3.244,0,0,1,1.331.562c.691.392,1.214.773,1.169.853" transform="translate(53.652 114.745)" fill="#263238"/>
            <path id="Trazado_689681" data-name="Trazado 689681" d="M65.31,133.071a2.768,2.768,0,0,1-1.619-.4c-.842-.405-1.378-.956-1.318-1.019a8.831,8.831,0,0,1,1.464.719,8.933,8.933,0,0,1,1.473.7" transform="translate(54.069 114.124)" fill="#263238"/>
            <path id="Trazado_689682" data-name="Trazado 689682" d="M62.5,134.527a5.064,5.064,0,0,1-1.522-.9,10.408,10.408,0,0,1-1.419-1.3,5.1,5.1,0,0,1-.708-.924.955.955,0,0,1-.1-.694.7.7,0,0,1,.588-.476,3.242,3.242,0,0,1,2.989,2.83,3.149,3.149,0,0,1-.1,1.311c-.09.295-.181.442-.2.435a4.986,4.986,0,0,0,.062-1.708,3.2,3.2,0,0,0-.812-1.606,2.752,2.752,0,0,0-1.893-.933c-.347.039-.418.379-.243.7a5.33,5.33,0,0,0,.646.866,12.067,12.067,0,0,0,1.337,1.322c.82.695,1.4,1.034,1.374,1.081" transform="translate(50.904 112.903)" fill="#263238"/>
            <path id="Trazado_689683" data-name="Trazado 689683" d="M60.512,133.514a1.74,1.74,0,0,1,.441-1.163,2.879,2.879,0,0,1,1.064-.874,1.775,1.775,0,0,1,1.725-.041.706.706,0,0,1,.062.98,1.935,1.935,0,0,1-.657.53,5.286,5.286,0,0,1-1.258.506,2.562,2.562,0,0,1-1.232.112c-.006-.054.463-.1,1.165-.338a6.171,6.171,0,0,0,1.172-.545c.4-.2.877-.7.534-.989a1.583,1.583,0,0,0-1.383.063,2.929,2.929,0,0,0-1.008.743,6.548,6.548,0,0,0-.624,1.016" transform="translate(52.45 113.761)" fill="#263238"/>
            <path id="Trazado_689684" data-name="Trazado 689684" d="M80.519,140.533c-.037.05-.644-.459-1.792-.958a8.61,8.61,0,0,0-9.109,1.348c-.956.808-1.389,1.473-1.438,1.436a1.568,1.568,0,0,1,.278-.48,7.264,7.264,0,0,1,1-1.131,8.355,8.355,0,0,1,9.365-1.385,7.235,7.235,0,0,1,1.288.792c.28.222.418.364.405.379" transform="translate(59.107 120.082)" fill="#263238"/>
            <path id="Trazado_689685" data-name="Trazado 689685" d="M70.482,140.308a15.517,15.517,0,0,1-3.67-1.671,15.52,15.52,0,0,1-3.316-2.3c.056-.078,1.553.918,3.48,2.009s3.545,1.873,3.506,1.96" transform="translate(55.045 118.193)" fill="#263238"/>
            <path id="Trazado_689686" data-name="Trazado 689686" d="M70.393,139.928c.024.091-.317.256-.683.519s-.635.53-.715.478.1-.448.521-.749.861-.336.877-.248" transform="translate(59.798 121.271)" fill="#263238"/>
            <path id="Trazado_689687" data-name="Trazado 689687" d="M72.014,139.311c.024.09-.273.246-.663.355s-.728.119-.752.032.273-.248.665-.355.726-.119.751-.032" transform="translate(61.203 120.723)" fill="#263238"/>
            <path id="Trazado_689688" data-name="Trazado 689688" d="M73.761,139.786c-.063.071-.377-.116-.8-.194s-.78-.041-.81-.131.358-.3.877-.2.8.461.732.521" transform="translate(62.548 120.709)" fill="#263238"/>
            <path id="Trazado_689689" data-name="Trazado 689689" d="M74.524,139.95c-.015.091-.222.134-.463.1s-.428-.142-.413-.233.222-.133.463-.1.428.142.413.233" transform="translate(63.847 121.113)" fill="#263238"/>
            <path id="Trazado_689690" data-name="Trazado 689690" d="M257.629,168.417l-92.981-87.68a30.566,30.566,0,0,0-48.393,6.193L60.5,179.333,94.42,200.186l50.263-72.362,45.91,41.483Z" transform="translate(52.451 62.017)" fill="#263238"/>
            <path id="Trazado_689691" data-name="Trazado 689691" d="M259.275,134.19c.394,1.182,3.153,31.139-37.051,31.139H114.8a24.62,24.62,0,0,1,0-49.24H214.821a24.612,24.612,0,0,1,10.36,2.287Z" transform="translate(78.181 100.64)" fill="#263238"/>
            <path id="Trazado_689692" data-name="Trazado 689692" d="M98.281,116.287c0,.237,22.187.431,49.55.431s49.556-.194,49.556-.431-22.183-.429-49.556-.429-49.55.192-49.55.429" transform="translate(85.203 100.441)" fill="#455a64"/>
            <path id="Trazado_689693" data-name="Trazado 689693" d="M108.575,90.708c-.259,0-.269,4.649-1.113,10.283-.816,5.642-2.145,10.091-1.9,10.169.2.078,1.921-4.314,2.75-10.044.857-5.722.478-10.425.261-10.408" transform="translate(91.491 78.638)" fill="#455a64"/>
            <path id="Trazado_689694" data-name="Trazado 689694" d="M104.839,90.35c-.228,0-.465,4.744.043,10.572s1.535,10.47,1.757,10.427c.246-.043-.411-4.712-.9-10.5s-.652-10.5-.9-10.5" transform="translate(90.664 78.327)" fill="#455a64"/>
            <path id="Trazado_689695" data-name="Trazado 689695" d="M177.306,36.807a3.141,3.141,0,0,0,5.056,2.8c1.831-1.426,1.542-4.281.7-6.448s-2.067-4.412-1.531-6.671c.411-1.729,1.774-3.039,2.746-4.527a10.017,10.017,0,0,0,1.105-8.877,8.43,8.43,0,0,0-6.956-5.4c-3.15-.252-6.652,1.383-9.3-.345-1.917-1.253-2.517-3.8-4.128-5.429C162.5-.614,158.319-.278,154.953.87s-6.669,2.942-10.22,2.759c-2.967-.151-5.674-1.675-8.56-2.369A15.987,15.987,0,0,0,119.4,8.039a15.989,15.989,0,0,0,.978,18.072c1.443,1.805,4.693,7.2,11.166,5.86" transform="translate(101.481 0)" fill="#263238"/>
            <path id="Trazado_689696" data-name="Trazado 689696" d="M167.862,6.6l.872,4.658,13.492,69.648c1.566,8.086-4.139,15.873-12.809,17.484-8.756,1.626-17.239-3.652-18.957-11.793-1.8-8.545-3.855-17.508-3.855-17.508s-11.4.457-16.662-13.44c-2.619-6.913-4.7-18.707-6.081-28.411a15.5,15.5,0,0,1,13.8-17.626Z" transform="translate(107.243 5.726)" fill="#ffbe9d"/>
            <path id="Trazado_689697" data-name="Trazado 689697" d="M126.777,23.642a1.883,1.883,0,0,0,2.164,1.49,1.8,1.8,0,0,0,1.555-2.055,1.883,1.883,0,0,0-2.162-1.492,1.8,1.8,0,0,0-1.557,2.057" transform="translate(109.885 18.693)" fill="#263238"/>
            <path id="Trazado_689698" data-name="Trazado 689698" d="M125.852,21.94c.278.192,1.46-1.129,3.444-1.536,1.977-.435,3.644.282,3.809-.006.084-.129-.239-.513-.969-.844a5.162,5.162,0,0,0-3.11-.295,4.966,4.966,0,0,0-2.679,1.523c-.513.6-.629,1.073-.495,1.157" transform="translate(109.06 16.597)" fill="#263238"/>
            <path id="Trazado_689699" data-name="Trazado 689699" d="M137.262,21.5a1.883,1.883,0,0,0,2.164,1.49,1.8,1.8,0,0,0,1.555-2.055,1.883,1.883,0,0,0-2.162-1.492,1.8,1.8,0,0,0-1.557,2.057" transform="translate(118.975 16.833)" fill="#263238"/>
            <path id="Trazado_689700" data-name="Trazado 689700" d="M136.337,19.969c.278.192,1.462-1.131,3.446-1.536,1.975-.435,3.642.284,3.809-.006.082-.129-.239-.515-.971-.844a5.162,5.162,0,0,0-3.11-.295,4.967,4.967,0,0,0-2.679,1.525c-.512.594-.629,1.072-.495,1.156" transform="translate(118.15 14.889)" fill="#263238"/>
            <path id="Trazado_689701" data-name="Trazado 689701" d="M136.6,35.113a13.4,13.4,0,0,0-3.344.088c-.515.052-1.017.052-1.176-.276a2.661,2.661,0,0,1,.028-1.572q.333-1.985.7-4.167c.939-5.924,1.507-10.752,1.271-10.787s-1.195,4.736-2.136,10.66c-.22,1.458-.431,2.847-.627,4.176a2.988,2.988,0,0,0,.148,2.042,1.3,1.3,0,0,0,.986.569,3.584,3.584,0,0,0,.887-.06,13.281,13.281,0,0,0,3.267-.674" transform="translate(113.744 15.95)" fill="#263238"/>
            <path id="Trazado_689702" data-name="Trazado 689702" d="M135.971,44.317a37.358,37.358,0,0,0,18.182-9.133s-2.619,10.843-17.286,12.486Z" transform="translate(117.878 30.502)" fill="#eb996e"/>
            <path id="Trazado_689703" data-name="Trazado 689703" d="M139.8,27.438c-.327.049.116,2.2-1.41,4.113s-3.866,2.151-3.82,2.455c0,.14.6.312,1.572.136a5.477,5.477,0,0,0,3.215-1.927A4.769,4.769,0,0,0,140.4,28.8c-.1-.917-.457-1.4-.6-1.357" transform="translate(116.664 23.785)" fill="#263238"/>
            <path id="Trazado_689704" data-name="Trazado 689704" d="M135.188,15.706c.308.5,2.235-.168,4.621-.372,2.38-.25,4.4.041,4.608-.506.09-.261-.344-.7-1.21-1.064a8.05,8.05,0,0,0-7.031.668c-.782.521-1.126,1.034-.988,1.273" transform="translate(117.173 11.486)" fill="#263238"/>
            <path id="Trazado_689705" data-name="Trazado 689705" d="M125.627,18.823c.442.377,1.712-.373,3.351-.737,1.624-.42,3.1-.327,3.319-.864.091-.258-.22-.665-.917-.963a4.966,4.966,0,0,0-5.375,1.29c-.484.584-.579,1.087-.379,1.275" transform="translate(108.825 13.822)" fill="#263238"/>
            <path id="Trazado_689706" data-name="Trazado 689706" d="M123.608,22.194s8.138,2.321,17.049-4.262c5.849-4.318,13.044-7.186,14.917-6.187s3.374,7.542,10.059,8.36c0,0,1.766,12.673,6.71,11.345s-1.021-26.262-1.021-26.262L157.4,7.309l-13.851-.187-12.322,3.99L121.92,15.5Z" transform="translate(105.696 4.498)" fill="#263238"/>
            <path id="Trazado_689707" data-name="Trazado 689707" d="M150.045,3.322c.03-.2-1.24-.4-2.517.386s-1.682,2-1.488,2.067c.2.1.812-.769,1.889-1.411,1.062-.668,2.117-.821,2.115-1.042" transform="translate(126.567 2.721)" fill="#263238"/>
            <path id="Trazado_689708" data-name="Trazado 689708" d="M145.506,1.434c-.228.067.155,1.518.246,3.267s-.381,3.136-.175,3.228c.17.112,1.053-1.3.943-3.262-.108-1.93-.844-3.3-1.014-3.234" transform="translate(126.082 1.241)" fill="#263238"/>
            <path id="Trazado_689709" data-name="Trazado 689709" d="M148.2,17.127c.185-.142,7.716-4.57,9.544,3.8s-6.949,8.474-7.016,8.237S148.2,17.127,148.2,17.127" transform="translate(128.478 13.724)" fill="#ffbe9d"/>
            <path id="Trazado_689710" data-name="Trazado 689710" d="M150.883,24.222c.032-.035.168.071.439.129a1.491,1.491,0,0,0,1.094-.215c.814-.517,1.251-2.083.961-3.6a4.92,4.92,0,0,0-.863-2,1.725,1.725,0,0,0-1.34-.879.76.76,0,0,0-.773.588c-.062.258.028.413-.013.437-.019.026-.211-.1-.218-.461a.944.944,0,0,1,.215-.6,1.126,1.126,0,0,1,.76-.388,2.1,2.1,0,0,1,1.805.963,5.066,5.066,0,0,1,1.014,2.222c.316,1.7-.2,3.463-1.337,4.077a1.6,1.6,0,0,1-1.38.069c-.3-.149-.39-.327-.364-.349" transform="translate(130.187 14.935)" fill="#eb996e"/>
            <path id="Trazado_689711" data-name="Trazado 689711" d="M201.376,151.077V145.56l-78.54,1.606L77.615,74.914l-4.15,3,46.33,73.874Z" transform="translate(63.689 64.945)" fill="#e0e0e0"/>
            <path id="Trazado_689712" data-name="Trazado 689712" d="M114.712,104.479l-3.954,5.862v12.07s2.046.472,2.864-1.163,1.908-7.225,1.908-7.225l1.914,4.94a4.263,4.263,0,0,0,5.011,2.6l14.562-3.652-5.95-17.017Z" transform="translate(96.02 87.464)" fill="#ffbe9d"/>
            <path id="Trazado_689713" data-name="Trazado 689713" d="M164.481,42.189a21.446,21.446,0,0,1,15.779,1.064c7.335,3.469,14.1,12.718,18.2,23.508,4.174,10.991,14.416,29.128,22.416,60.616,6.982,27.476,16.085,56.394,8.526,66.691l-.157.211a15.567,15.567,0,0,1-17.769,5.315l-7.374-2.642a129.715,129.715,0,0,1-43.684-26.29l-25.741-23.486L145,139.331s-8.015-51.132-4.664-70.6c2.9-16.815,15.481-23.738,24.149-26.54" transform="translate(116.759 35.685)" fill="#8979f3"/>
            <path id="Trazado_689714" data-name="Trazado 689714" d="M192.6,54.875l14.37,67.168a24.052,24.052,0,0,1-15.292,27.629l-62.445,11.975-7.787-23.277,50.676-15.809L157.259,57.672Z" transform="translate(105.285 47.573)" fill="#8979f3"/>
            <path id="Trazado_689715" data-name="Trazado 689715" d="M207.744,142.162a2.154,2.154,0,0,0-.1.392c-.06.289-.136.672-.237,1.161-.05.259-.106.547-.168.861q-.168.459-.364,1t-.426,1.167c-.215.392-.444.808-.685,1.249a16.64,16.64,0,0,1-5.05,5.338,28.4,28.4,0,0,1-9.161,4l-61.784,11.3.416.243c-2.571-7.373-5.293-15.171-8.123-23.286l-.26.515,50.685-15.781.39-.121-.1-.4c-.881-3.459-1.826-7.163-2.778-10.9-2.946-11.762-5.707-23.275-8.108-34.447-1.176-5.59-2.291-11.1-3.06-16.52-.226-1.355-.22-2.7-.344-4.036a17.918,17.918,0,0,1,.444-3.926,16.373,16.373,0,0,1,3.458-6.88,16.9,16.9,0,0,1,13.24-5.931,17.3,17.3,0,0,1,12.294,6.222,32.4,32.4,0,0,1,6.335,11.676,103.167,103.167,0,0,1,2.873,12.09c3.071,15.566,5.558,28.176,7.285,36.93.874,4.329,1.553,7.7,2.024,10.033.235,1.118.416,1.985.547,2.6.129.586.217.883.217.883s-.03-.308-.131-.9c-.11-.624-.263-1.5-.463-2.621-.433-2.336-1.06-5.72-1.865-10.063-1.662-8.765-4.059-21.393-7.016-36.982a103.121,103.121,0,0,0-2.838-12.18,33.044,33.044,0,0,0-6.433-11.945,18.016,18.016,0,0,0-12.8-6.5,17.667,17.667,0,0,0-13.869,6.17,17.2,17.2,0,0,0-3.644,7.216,18.86,18.86,0,0,0-.47,4.117c.121,1.368.119,2.778.344,4.137.767,5.47,1.878,10.983,3.051,16.586,2.393,11.192,5.151,22.713,8.1,34.482.952,3.734,1.9,7.44,2.782,10.9l.288-.519-50.667,15.839-.4.123.136.39c2.851,8.108,5.59,15.9,8.181,23.266l.1.3.312-.058c25.562-4.781,46.841-8.683,61.756-11.612a28.46,28.46,0,0,0,9.247-4.143,16.718,16.718,0,0,0,5.056-5.5c.237-.452.459-.877.67-1.279q.216-.639.407-1.193t.34-1.019c.052-.319.1-.61.142-.874.077-.5.136-.885.181-1.178a2.077,2.077,0,0,0,.041-.4" transform="translate(105.047 40.226)" fill="#263238"/>
            <path id="Trazado_689716" data-name="Trazado 689716" d="M157.4,99.873c.1,0,.185-.788-.133-2.007a9.372,9.372,0,0,0-6.777-6.51c-1.232-.269-2.011-.149-2.011-.052-.009.14.736.241,1.841.637a10.835,10.835,0,0,1,6.37,6.118c.441,1.088.571,1.83.709,1.815" transform="translate(128.721 79.057)" fill="#263238"/>
            <g id="Grupo_893453" data-name="Grupo 893453" transform="translate(272.682 101.552)" opacity="0.2">
              <g id="Grupo_893452" data-name="Grupo 893452">
                <g id="Grupo_893451" data-name="Grupo 893451" clip-path="url(#clip-path-7)">
                  <path id="Trazado_689717" data-name="Trazado 689717" d="M172.728,54.4c7.514,23.286,12.053,47.45,15.04,71.735.691,5.606,1.3,11.312.33,16.877s-3.711,11.06-8.45,14.133c-4.425,2.868-10.08,3.306-15.26,2.324s-13.561-2.126-18.33-4.38L174,149.323s18.016-1.12,10.279-35.617S172.728,54.4,172.728,54.4" transform="translate(-146.059 -54.395)"/>
                </g>
              </g>
            </g>
            <path id="Trazado_689718" data-name="Trazado 689718" d="M141.031,72.4,135.97,56.581l33.05-21.925,4.466,15.417s-17.155,1.915-21.6,6.508S141.031,72.4,141.031,72.4" transform="translate(117.877 30.044)" fill="#8979f3"/>
            <path id="Trazado_689719" data-name="Trazado 689719" d="M140.9,53.755c-.256.08-1.085-1.824-1.85-4.255s-1.178-4.466-.92-4.546,1.083,1.824,1.848,4.255,1.178,4.466.922,4.546" transform="translate(119.681 38.97)" fill="#263238"/>
            <path id="Trazado_689720" data-name="Trazado 689720" d="M144.279,51.642c-.256.08-1.085-1.824-1.85-4.255s-1.178-4.466-.92-4.546,1.083,1.824,1.848,4.255,1.178,4.466.922,4.546" transform="translate(122.612 37.138)" fill="#263238"/>
            <path id="Trazado_689721" data-name="Trazado 689721" d="M147.66,49.529c-.256.08-1.085-1.824-1.85-4.255s-1.178-4.466-.92-4.546,1.083,1.824,1.848,4.255,1.178,4.466.922,4.546" transform="translate(125.543 35.306)" fill="#263238"/>
            <path id="Trazado_689722" data-name="Trazado 689722" d="M150.767,47.63c-.256.08-1.085-1.824-1.848-4.255s-1.178-4.466-.922-4.546,1.083,1.824,1.848,4.255,1.178,4.466.922,4.546" transform="translate(128.237 33.66)" fill="#263238"/>
            <path id="Trazado_689723" data-name="Trazado 689723" d="M153.945,45.346c-.256.08-1.085-1.824-1.85-4.255s-1.178-4.466-.92-4.546,1.083,1.824,1.848,4.255,1.178,4.466.922,4.546" transform="translate(130.992 31.68)" fill="#263238"/>
            <path id="Trazado_689724" data-name="Trazado 689724" d="M124.141,158.131a10.328,10.328,0,0,1,1.559-.5l4.522-1.262,16.67-4.468c7.074-1.858,15.456-4.059,24.754-6.5q3.5-.91,7.158-1.867a21.607,21.607,0,0,0,3.571-1.092,9.909,9.909,0,0,0,5.789-9.027,14.975,14.975,0,0,0-.67-3.9q-.5-2-1.017-4.018c-5.4-21.535-10.277-41.024-13.84-55.237-1.708-7.012-3.1-12.718-4.085-16.765q-.669-2.879-1.064-4.572a10.548,10.548,0,0,1-.306-1.609,10.1,10.1,0,0,1,.5,1.563q.459,1.675,1.24,4.525c1.06,4.031,2.552,9.71,4.385,16.69,3.633,14.194,8.612,33.659,14.116,55.168q.512,2.019,1.017,4.016a15.884,15.884,0,0,1,.694,4.135,10.847,10.847,0,0,1-6.368,9.887,22.681,22.681,0,0,1-3.726,1.133l-7.167,1.835-24.806,6.3-16.748,4.167-4.565,1.087a10.453,10.453,0,0,1-1.609.314" transform="translate(107.622 41.015)" fill="#e0e0e0"/>
            <path id="Trazado_689725" data-name="Trazado 689725" d="M124.823,162.084a1.5,1.5,0,0,1,.407-.159l1.221-.372,4.714-1.337c4.191-1.144,10.109-2.759,17.387-4.744l25.818-6.915,7.466-1.985c1.249-.351,2.608-.652,3.807-1.053a9.9,9.9,0,0,0,6.56-9.012,12.456,12.456,0,0,0-.648-4.059q-.56-2.075-1.128-4.176c-5.987-22.4-11.407-42.671-15.357-57.445l-4.546-17.437q-.751-3-1.187-4.753c-.116-.5-.209-.905-.286-1.243a1.417,1.417,0,0,1-.065-.431,1.457,1.457,0,0,1,.161.407c.1.329.228.728.379,1.217q.5,1.733,1.365,4.707c1.169,4.184,2.817,10.091,4.845,17.357,4.021,14.756,9.538,35,15.634,57.376q.566,2.1,1.126,4.176a13.424,13.424,0,0,1,.676,4.337,10.832,10.832,0,0,1-7.214,9.867c-1.354.446-2.6.708-3.887,1.064l-7.473,1.953-25.87,6.714c-7.309,1.859-13.253,3.374-17.463,4.445l-4.763,1.159-1.243.278a1.457,1.457,0,0,1-.433.063" transform="translate(108.213 40.714)" fill="#e0e0e0"/>
          </g>
        </g>
      </g>
    </g>
    <g id="Grupo_893464" data-name="Grupo 893464" transform="translate(48 -184.832)">
      <path id="Rectángulo_343163" data-name="Rectángulo 343163" d="M38.5,0H150.45A11.55,11.55,0,0,1,162,11.55v53.9A11.55,11.55,0,0,1,150.45,77H38.5A38.5,38.5,0,0,1,0,38.5v0A38.5,38.5,0,0,1,38.5,0Z" transform="translate(285 7561)" fill="#f1bf5e"/>
      <text id="Product_Owner" data-name="Product
Owner" transform="translate(370 7594)" fill="#12263f" font-size="16" font-family="Roboto-Bold, Roboto" font-weight="700"><tspan x="0" y="0">Product</tspan><tspan x="0" y="24">Owner</tspan></text>
      <g id="Elipse_4916" data-name="Elipse 4916" transform="translate(285 7561)" fill="#f1bf5e" stroke="#fff" stroke-width="5">
        <circle cx="38.5" cy="38.5" r="38.5" stroke="none"/>
        <circle cx="38.5" cy="38.5" r="36" fill="none"/>
      </g>
      <text id="PO" transform="translate(302 7612)" fill="#12263f" font-size="32" font-family="Roboto-Black, Roboto" font-weight="800"><tspan x="0" y="0">PO</tspan></text>
    </g>
    <g id="Grupo_893463" data-name="Grupo 893463" transform="translate(14 -184.832)">
      <path id="Rectángulo_343165" data-name="Rectángulo 343165" d="M38.5,0H150.45A11.55,11.55,0,0,1,162,11.55v53.9A11.55,11.55,0,0,1,150.45,77H38.5A38.5,38.5,0,0,1,0,38.5v0A38.5,38.5,0,0,1,38.5,0Z" transform="translate(705 7561)" fill="#f1bf5e"/>
      <text id="Scrum_Master" data-name="Scrum
Master" transform="translate(790 7594)" fill="#12263f" font-size="16" font-family="Roboto-Bold, Roboto" font-weight="700"><tspan x="0" y="0">Scrum</tspan><tspan x="0" y="24">Master</tspan></text>
      <g id="Elipse_4917" data-name="Elipse 4917" transform="translate(705 7561)" fill="#f1bf5e" stroke="#fff" stroke-width="5">
        <circle cx="38.5" cy="38.5" r="38.5" stroke="none"/>
        <circle cx="38.5" cy="38.5" r="36" fill="none"/>
      </g>
      <text id="SM" transform="translate(720 7612)" fill="#12263f" font-size="32" font-family="Roboto-Black, Roboto" font-weight="800"><tspan x="0" y="0">SM</tspan></text>
    </g>
    <g id="Grupo_893462" data-name="Grupo 893462" transform="translate(48 -184.832)">
      <path id="Rectángulo_343166" data-name="Rectángulo 343166" d="M38.5,0H150.45A11.55,11.55,0,0,1,162,11.55v53.9A11.55,11.55,0,0,1,150.45,77H38.5A38.5,38.5,0,0,1,0,38.5v0A38.5,38.5,0,0,1,38.5,0Z" transform="translate(1020 7561)" fill="#f1bf5e"/>
      <text id="Scrum_Team" data-name="Scrum
Team" transform="translate(1105 7594)" fill="#12263f" font-size="16" font-family="Roboto-Bold, Roboto" font-weight="700"><tspan x="0" y="0">Scrum</tspan><tspan x="0" y="24">Team</tspan></text>
      <g id="Elipse_4918" data-name="Elipse 4918" transform="translate(1020 7561)" fill="#f1bf5e" stroke="#fff" stroke-width="5">
        <circle cx="38.5" cy="38.5" r="38.5" stroke="none"/>
        <circle cx="38.5" cy="38.5" r="36" fill="none"/>
      </g>
      <text id="ST" transform="translate(1039 7612)" fill="#12263f" font-size="32" font-family="Roboto-Black, Roboto" font-weight="800"><tspan x="0" y="0">ST</tspan></text>
    </g>
  </g>
</svg>
