<svg id="Grupo_61870" data-name="Grupo 61870" xmlns="http://www.w3.org/2000/svg" width="24.791" height="15.417" viewBox="0 0 24.791 15.417">
  <path id="Trazado_111376" data-name="Trazado 111376" d="M886.009,4802.46h-.476a.646.646,0,0,1-.646-.646v-.477a.814.814,0,0,0-.17-.476l-.034-.034a.714.714,0,0,0-1.224.51v.477a.646.646,0,0,1-.646.646h-.476a.816.816,0,0,0-.477.17l-.034.033a.694.694,0,0,0-.2.511.7.7,0,0,0,.714.68h.476a.646.646,0,0,1,.646.646v.476a.714.714,0,1,0,1.428,0v-.441a.646.646,0,0,1,.646-.646h.476a.714.714,0,1,0,0-1.428Z" transform="translate(-878.103 -4797.291)" fill="#8979f3"/>
  <path id="Trazado_111377" data-name="Trazado 111377" d="M900.531,4806.259a25.805,25.805,0,0,0-.714-4.693,15.7,15.7,0,0,0-1.428-3.842c-1.871-3.367-4.047-2.789-6.631-2.143a19.652,19.652,0,0,1-3.366.646h-.51a19.9,19.9,0,0,1-3.332-.646c-2.585-.68-4.761-1.224-6.631,2.143a16.243,16.243,0,0,0-1.428,3.842,23.489,23.489,0,0,0-.714,4.693,8.038,8.038,0,0,0,.34,3.264,1.348,1.348,0,0,0,.816.85,2.11,2.11,0,0,0,1.394-.169,14.137,14.137,0,0,0,3.945-2.823,8.969,8.969,0,0,1,5.883-1.871,8.493,8.493,0,0,1,5.849,1.938,13.867,13.867,0,0,0,3.945,2.822,2.347,2.347,0,0,0,1.394.17,1.348,1.348,0,0,0,.816-.85A7.871,7.871,0,0,0,900.531,4806.259Zm-15.507-3.912a1.813,1.813,0,0,1-1.224.579,2.067,2.067,0,0,1-.578,1.224,2.009,2.009,0,0,1-1.394.578,1.927,1.927,0,0,1-1.395-.578,1.816,1.816,0,0,1-.578-1.224,1.893,1.893,0,0,1-1.258-.579,2,2,0,0,1-.578-1.394,1.927,1.927,0,0,1,.578-1.395l.034-.034a2.021,2.021,0,0,1,1.224-.544,1.977,1.977,0,0,1,.578-1.224,2.007,2.007,0,0,1,1.395-.578,1.927,1.927,0,0,1,1.394.578l.034.034a1.937,1.937,0,0,1,.544,1.19,2.067,2.067,0,0,1,1.224.578,2.01,2.01,0,0,1,.578,1.395A1.923,1.923,0,0,1,885.025,4802.347Zm6.631-.2a1.19,1.19,0,1,1,1.191-1.19A1.19,1.19,0,0,1,891.655,4802.144Zm2.414,2.415a1.19,1.19,0,1,1,1.191-1.19A1.19,1.19,0,0,1,894.07,4804.559Zm0-4.829a1.19,1.19,0,1,1,1.191-1.19A1.19,1.19,0,0,1,894.07,4799.729Zm2.415,2.414a1.19,1.19,0,1,1,1.19-1.19A1.19,1.19,0,0,1,896.485,4802.144Z" transform="translate(-875.758 -4795.071)" fill="#8979f3"/>
</svg>
