<svg xmlns="http://www.w3.org/2000/svg" width="27.564" height="24.501" viewBox="0 0 27.564 24.501">
  <path id="puzzle-piece-solid" d="M24.857,13.813c-1.987,0-2.847,1.512-3.927,1.512-2.87,0-.258-8.434-.258-8.434s-9.393,3.828-9.393-.158c0-1.714,1.737-2.213,1.737-4.115A2.655,2.655,0,0,0,10.075,0C8.417,0,6.9.9,6.9,2.7c0,1.979,1.517,2.837,1.517,3.912C8.417,9.94,0,7.98,0,7.98V23.927s8.548,1.964,8.548-1.372c0-1.075-1.914-1.919-1.914-3.9,0-1.792,1.4-2.7,3.042-2.7a2.66,2.66,0,0,1,2.957,2.618c0,1.9-1.737,2.4-1.737,4.115,0,2.91,6.205,1.231,8.673,1.231,0,0-1.662-5.747,1.236-5.747,1.721,0,2.222,1.73,4.13,1.73a2.658,2.658,0,0,0,2.628-2.946C27.564,15.325,26.656,13.813,24.857,13.813Z" fill="#12263f"/>
</svg>
