<svg xmlns="http://www.w3.org/2000/svg" width="16" height="20" viewBox="0 0 16 20">
  <g id="Grupo_895075" data-name="Grupo 895075" transform="translate(-559.999 -1844)">
    <rect id="Rectángulo_44067" data-name="Rectángulo 44067" width="16" height="20" rx="2" transform="translate(559.999 1844)" fill="#12263f"/>
    <path id="Trazado_216548" data-name="Trazado 216548" d="M2.521,6.9A9.044,9.044,0,0,0,4.1,8.48L1.838,10.746a1.119,1.119,0,0,1-1.583,0h0a1.119,1.119,0,0,1,0-1.583ZM6.635-.072A4.438,4.438,0,1,1,2.2,4.366,4.441,4.441,0,0,1,6.635-.072Zm0,1.526A2.912,2.912,0,1,0,9.547,4.366,2.913,2.913,0,0,0,6.635,1.454Z" transform="translate(562.137 1848.072)" fill="#ffd150" fill-rule="evenodd"/>
  </g>
</svg>
