<svg xmlns="http://www.w3.org/2000/svg" width="15.814" height="20.486" viewBox="0 0 15.814 20.486">
  <g id="Grupo_156605" data-name="Grupo 156605" transform="translate(-1322.188 -851.823)">
    <g id="Grupo_156604" data-name="Grupo 156604" transform="translate(-34)">
      <path id="Trazado_598920" data-name="Trazado 598920" d="M15.853,2H3.953A1.982,1.982,0,0,0,2,4.009V5.774H17.807V4.009A1.982,1.982,0,0,0,15.853,2ZM4.54,5.048a.581.581,0,0,1-.006-1.161H4.54a.581.581,0,0,1,0,1.161Zm1.965,0A.581.581,0,0,1,6.5,3.887H6.5a.581.581,0,0,1,0,1.161Zm1.965,0a.581.581,0,0,1-.006-1.161h.006a.581.581,0,0,1,0,1.161Z" transform="translate(1354.195 849.823)"/>
      <path id="Sustracción_1" data-name="Sustracción 1" d="M17550.348,11715.3h-10.91a2.448,2.448,0,0,1-2.445-2.445L17537,11700h15.807l-.014,12.854A2.448,2.448,0,0,1,17550.348,11715.3Zm-7.766-10.284a.523.523,0,0,0-.256.068l-1.238.714a2.794,2.794,0,0,0,2.82,4.823l.008,0a.015.015,0,0,1,.008,0l.01-.008,1.186-.683a.517.517,0,0,0-.258-.966.506.506,0,0,0-.262.071l-1.189.684-.018.013a1.744,1.744,0,0,1-.875.235,1.776,1.776,0,0,1-1.518-.86,1.763,1.763,0,0,1,.613-2.405l1.229-.714a.506.506,0,0,0,.238-.311.512.512,0,0,0-.049-.394A.522.522,0,0,0,17542.582,11705.014Zm4.705-1.334a1.779,1.779,0,0,1,1.52.86,1.763,1.763,0,0,1-.613,2.405l-1.229.714a.511.511,0,0,0-.24.313.517.517,0,0,0,.5.652.553.553,0,0,0,.26-.07l1.186-.683.053-.031a2.8,2.8,0,0,0,.973-3.828,2.8,2.8,0,0,0-3.818-.974l-1.186.679a.523.523,0,0,0-.186.708.512.512,0,0,0,.447.259.519.519,0,0,0,.258-.068l1.186-.687a.058.058,0,0,0,.018-.013A1.757,1.757,0,0,1,17547.287,11703.68Zm-.809,1.713a.519.519,0,0,0-.258.068l-3.154,1.819a.517.517,0,0,0,.26.965.519.519,0,0,0,.26-.07l3.15-1.819a.511.511,0,0,0,.24-.312.515.515,0,0,0-.5-.65Z" transform="translate(-16180.805 -10842.988)"/>
    </g>
  </g>
</svg>
